<?xml version="1.0" ?><svg viewBox="0 0 64 64" xmlns="http://www.w3.org/2000/svg"><g id="a"/><g id="b"><path d="M43.33,28.23c1.59-2.52,2.5-5.44,2.5-8.42,0-8.72-7.09-15.81-15.81-15.81s-15.81,7.09-15.81,15.81c0,4.81,2.17,9.22,5.79,12.19h-5.56c-2.94,0-5.33,2.39-5.33,5.33,0,1.79,.89,3.37,2.25,4.33-1.36,.97-2.25,2.55-2.25,4.33s.89,3.37,2.25,4.33c-1.35,.97-2.25,2.54-2.25,4.33,0,2.94,2.39,5.33,5.33,5.33h20.3c1.07,0,2.08-.35,2.95-.94,.46,.04,.91,.14,1.38,.14,8.72,0,15.81-7.09,15.81-15.81,0-7.24-4.91-13.29-11.56-15.15Zm-27.12-8.42c0-7.61,6.19-13.81,13.81-13.81s13.81,6.19,13.81,13.81c0,2.86-.93,5.66-2.59,7.99-.71-.1-1.42-.22-2.16-.22-4.23,0-8.07,1.7-10.91,4.42h-4.62c-4.53-2.4-7.34-7.04-7.34-12.19Zm-5.1,17.52c0-1.84,1.5-3.33,3.33-3.33h12c-1.44,1.94-2.46,4.19-2.89,6.67H14.44c-1.84,0-3.33-1.5-3.33-3.33Zm3.33,12c-1.84,0-3.33-1.5-3.33-3.33s1.5-3.33,3.33-3.33h8.91c-.01,.25-.07,.48-.07,.72,0,2.1,.43,4.11,1.18,5.94H14.44Zm0,8.67c-1.84,0-3.33-1.5-3.33-3.33s1.5-3.33,3.33-3.33h11.05c1.74,2.97,4.38,5.35,7.6,6.67H14.44Zm24.64-.8c-7.61,0-13.81-6.19-13.81-13.81s6.15-13.81,13.81-13.81,13.81,6.19,13.81,13.81-6.19,13.81-13.81,13.81Z"/><path d="M39.08,34.27c-5.03,0-9.12,4.09-9.12,9.12s4.09,9.12,9.12,9.12,9.12-4.09,9.12-9.12-4.09-9.12-9.12-9.12Zm0,16.24c-3.93,0-7.12-3.2-7.12-7.12s3.2-7.12,7.12-7.12,7.12,3.19,7.12,7.12-3.19,7.12-7.12,7.12Z"/><path d="M30.02,28.93c5.03,0,9.12-4.09,9.12-9.12s-4.09-9.12-9.12-9.12-9.12,4.09-9.12,9.12,4.09,9.12,9.12,9.12Zm0-16.24c3.93,0,7.12,3.2,7.12,7.12s-3.2,7.12-7.12,7.12-7.12-3.19-7.12-7.12,3.19-7.12,7.12-7.12Z"/><path d="M30.02,20.81c.4,0,.72,.32,.72,.72s-.32,.72-.72,.72c-.19,0-.37-.08-.51-.21-.39-.39-1.02-.39-1.41,0s-.39,1.02,0,1.41c.27,.27,.58,.46,.92,.6v.28c0,.55,.45,1,1,1s1-.45,1-1v-.29c1.01-.4,1.72-1.37,1.72-2.52,0-1.5-1.22-2.72-2.72-2.72-.4,0-.72-.32-.72-.72s.32-.72,.72-.72c.19,0,.38,.08,.51,.21,.39,.39,1.02,.39,1.41,0s.39-1.02,0-1.41c-.27-.27-.58-.46-.92-.6v-.28c0-.55-.45-1-1-1s-1,.45-1,1v.29c-1,.4-1.72,1.37-1.72,2.52,0,1.5,1.22,2.72,2.72,2.72Z"/><path d="M39.08,42.39c-.4,0-.72-.32-.72-.72s.32-.72,.72-.72c.19,0,.37,.07,.51,.21,.39,.39,1.02,.39,1.41,0s.39-1.02,0-1.41c-.27-.27-.58-.47-.92-.6v-.28c0-.55-.45-1-1-1s-1,.45-1,1v.29c-1,.4-1.72,1.37-1.72,2.52,0,1.5,1.22,2.72,2.72,2.72,.4,0,.72,.32,.72,.72s-.32,.72-.72,.72c-.19,0-.37-.08-.51-.21-.39-.39-1.02-.39-1.41,0s-.39,1.02,0,1.41c.27,.27,.58,.46,.92,.6v.28c0,.55,.45,1,1,1s1-.45,1-1v-.29c1-.4,1.72-1.37,1.72-2.52,0-1.5-1.22-2.72-2.72-2.72Z"/><circle cx="39.08" cy="31.92" r="1"/><circle cx="39.08" cy="54.85" r="1"/><circle cx="50.55" cy="43.39" r="1"/><circle cx="27.62" cy="43.39" r="1"/><path d="M47.9,35.99c.39-.39,.39-1.03,0-1.41-.39-.39-1.03-.39-1.41,0-.39,.39-.39,1.03,0,1.41s1.03,.39,1.41,0Z"/><path d="M30.27,50.79c-.39,.39-.39,1.03,0,1.41,.39,.39,1.03,.39,1.41,0,.39-.39,.39-1.03,0-1.41-.39-.39-1.03-.39-1.41,0Z"/><path d="M47.19,50.49c-.27,0-.52,.11-.71,.29-.39,.39-.39,1.03,0,1.41,.19,.19,.44,.29,.71,.29s.52-.11,.71-.29c.39-.39,.39-1.03,0-1.41-.19-.19-.44-.29-.71-.29Z"/><path d="M30.98,36.28c.26,0,.52-.11,.71-.29,.39-.39,.39-1.03,0-1.41-.19-.19-.44-.29-.71-.29s-.52,.11-.71,.29c-.39,.39-.39,1.03,0,1.41,.19,.19,.44,.29,.71,.29Z"/><circle cx="30.02" cy="8.34" r="1"/><circle cx="41.48" cy="19.81" r="1"/><circle cx="18.55" cy="19.81" r="1"/><path d="M38.83,12.41c.39-.39,.39-1.03,0-1.41-.39-.39-1.03-.39-1.41,0-.39,.39-.39,1.03,0,1.41s1.03,.39,1.41,0Z"/><path d="M21.2,27.21c-.39,.39-.39,1.03,0,1.41,.39,.39,1.03,.39,1.41,0,.39-.39,.39-1.03,0-1.41-.39-.39-1.03-.39-1.41,0Z"/><path d="M21.91,12.7c.27,0,.52-.11,.71-.29,.39-.39,.39-1.03,0-1.41-.19-.19-.44-.29-.71-.29s-.52,.11-.71,.29c-.39,.39-.39,1.03,0,1.41,.19,.19,.44,.29,.71,.29Z"/></g><g id="c"/><g id="d"/><g id="e"/><g id="f"/><g id="g"/><g id="h"/><g id="i"/><g id="j"/><g id="k"/><g id="l"/><g id="m"/><g id="n"/><g id="o"/><g id="p"/><g id="q"/><g id="r"/><g id="s"/><g id="t"/><g id="u"/><g id="v"/><g id="w"/><g id="x"/><g id="y"/><g id="a`"/><g id="aa"/><g id="ab"/><g id="ac"/><g id="ad"/><g id="ae"/><g id="af"/><g id="ag"/><g id="ah"/><g id="ai"/><g id="aj"/><g id="ak"/><g id="al"/><g id="am"/><g id="an"/><g id="ao"/><g id="ap"/><g id="aq"/><g id="ar"/><g id="as"/><g id="at"/><g id="au"/><g id="av"/><g id="aw"/><g id="ax"/></svg>